<?xml version="1.0" standalone="no"?>
<!DOCTYPE svg PUBLIC "-//W3C//DTD SVG 20010904//EN"
 "http://www.w3.org/TR/2001/REC-SVG-20010904/DTD/svg10.dtd">
<svg version="1.0" xmlns="http://www.w3.org/2000/svg"
 width="16.000000pt" height="16.000000pt" viewBox="0 0 16.000000 16.000000"
 preserveAspectRatio="xMidYMid meet">
<metadata>
Created by potrace 1.11, written by Peter Selinger 2001-2013
</metadata>
<g transform="translate(0.000000,16.000000) scale(0.006061,-0.006061)"
fill="#000000" stroke="none">
<path d="M0 1320 l0 -1320 1320 0 1320 0 0 1320 0 1320 -1320 0 -1320 0 0
-1320z m2400 720 l0 -120 -1080 0 -1080 0 0 120 0 120 1080 0 1080 0 0 -120z
m0 -480 l0 -120 -1080 0 -1080 0 0 120 0 120 1080 0 1080 0 0 -120z m0 -480
l0 -120 -1080 0 -1080 0 0 120 0 120 1080 0 1080 0 0 -120z m-1080 -480 l0
-120 -540 0 -540 0 0 120 0 120 540 0 540 0 0 -120z"/>
</g>
</svg>
