<?xml version="1.0" encoding="utf-8"?>
<!-- Generator: Adobe Illustrator 19.1.0, SVG Export Plug-In . SVG Version: 6.00 Build 0)  -->
<svg version="1.1" id="Layer_1" xmlns="http://www.w3.org/2000/svg" xmlns:xlink="http://www.w3.org/1999/xlink" x="0px" y="0px"
	 width="168px" height="280px" viewBox="-1875 397 168 280" style="enable-background:new -1875 397 168 280;" xml:space="preserve"
	>
<style type="text/css">
	.st0{filter:url(#filter-3);}
	.st1{fill:#FD9727;}
	.st2{filter:url(#Adobe_OpacityMaskFilter);}
	.st3{fill:#FFFFFF;}
	.st4{mask:url(#mask-2);}
	.st5{fill:#FEE94E;}
</style>
<filter  width="200%" height="200%" filterUnits="objectBoundingBox" x="-50%" y="-50%" id="filter-3">
	<feOffset  in="SourceAlpha" result="shadowOffsetOuter1" dy="4" dx="0"></feOffset>
	<feGaussianBlur  in="shadowOffsetOuter1" result="shadowBlurOuter1" stdDeviation="10"></feGaussianBlur>
	
		<feColorMatrix  type="matrix" in="shadowBlurOuter1" values="0 0 0 0 0   0 0 0 0 0   0 0 0 0 0  0 0 0 0.2 0" result="shadowMatrixOuter1">
		</feColorMatrix>
	<feOffset  in="SourceAlpha" result="shadowOffsetOuter2" dy="4" dx="0"></feOffset>
	<feGaussianBlur  in="shadowOffsetOuter2" result="shadowBlurOuter2" stdDeviation="5"></feGaussianBlur>
	
		<feColorMatrix  type="matrix" in="shadowBlurOuter2" values="0 0 0 0 0   0 0 0 0 0   0 0 0 0 0  0 0 0 0.2 0" result="shadowMatrixOuter2">
		</feColorMatrix>
	<feMerge>
		<feMergeNode  in="shadowMatrixOuter1"></feMergeNode>
		<feMergeNode  in="shadowMatrixOuter2"></feMergeNode>
	</feMerge>
</filter>
<title>29E4F962-C694-446C-9222-64BB129180E2</title>
<desc>Created with sketchtool.</desc>
<g id="Symbols">
	<g id="tix_x2F_BER" transform="translate(20.000000, 16.000000)">
		<g id="Berlin">
			<g id="Ticket">
				<g id="Mask">
					<g class="st0">
						<rect id="path-1_3_" x="-1895" y="381" width="168" height="280"/>
					</g>
					<g>
						<rect id="path-1_2_" x="-1895" y="381" class="st1" width="168" height="280"/>
					</g>
				</g>
				<defs>
					<filter id="Adobe_OpacityMaskFilter" filterUnits="userSpaceOnUse" x="-1899" y="376" width="175" height="290">
						<feColorMatrix  type="matrix" values="1 0 0 0 0  0 1 0 0 0  0 0 1 0 0  0 0 0 1 0"/>
					</filter>
				</defs>
				<mask maskUnits="userSpaceOnUse" x="-1899" y="376" width="175" height="290" id="mask-2">
					<g class="st2">
						<rect id="path-1" x="-1895" y="381" class="st3" width="168" height="280"/>
					</g>
				</mask>
				<g id="Group-2" class="st4">
					<g transform="translate(-4.000000, -5.000000)">
						<g id="Row1">
							<circle id="Oval" class="st5" cx="-1890" cy="386" r="5"/>
							<circle id="Oval-Copy" class="st5" cx="-1868" cy="386" r="5"/>
							<circle id="Oval-Copy-2" class="st5" cx="-1846" cy="386" r="5"/>
							<circle id="Oval-Copy-3" class="st5" cx="-1824" cy="386" r="5"/>
							<circle id="Oval-Copy-4" class="st5" cx="-1802" cy="386" r="5"/>
							<circle id="Oval-Copy-5" class="st5" cx="-1780" cy="386" r="5"/>
							<circle id="Oval-Copy-6" class="st5" cx="-1758" cy="386" r="5"/>
							<circle id="Oval-Copy-7" class="st5" cx="-1736" cy="386" r="5"/>
						</g>
						<g id="Row2" transform="translate(11.000000, 10.000000)">
							<circle id="Oval_1_" class="st5" cx="-1890" cy="386" r="5"/>
							<circle id="Oval-Copy_1_" class="st5" cx="-1868" cy="386" r="5"/>
							<circle id="Oval-Copy-2_1_" class="st5" cx="-1846" cy="386" r="5"/>
							<circle id="Oval-Copy-3_1_" class="st5" cx="-1824" cy="386" r="5"/>
							<circle id="Oval-Copy-4_1_" class="st5" cx="-1802" cy="386" r="5"/>
							<circle id="Oval-Copy-5_1_" class="st5" cx="-1780" cy="386" r="5"/>
							<circle id="Oval-Copy-6_1_" class="st5" cx="-1758" cy="386" r="5"/>
							<circle id="Oval-Copy-7_1_" class="st5" cx="-1736" cy="386" r="5"/>
						</g>
						<g id="Row3" transform="translate(0.000000, 20.000000)">
							<circle id="Oval_2_" class="st5" cx="-1890" cy="386" r="5"/>
							<circle id="Oval-Copy_2_" class="st5" cx="-1868" cy="386" r="5"/>
							<circle id="Oval-Copy-2_2_" class="st5" cx="-1846" cy="386" r="5"/>
							<circle id="Oval-Copy-3_2_" class="st5" cx="-1824" cy="386" r="5"/>
							<circle id="Oval-Copy-4_2_" class="st5" cx="-1802" cy="386" r="5"/>
							<circle id="Oval-Copy-5_2_" class="st5" cx="-1780" cy="386" r="5"/>
							<circle id="Oval-Copy-6_2_" class="st5" cx="-1758" cy="386" r="5"/>
							<circle id="Oval-Copy-7_2_" class="st5" cx="-1736" cy="386" r="5"/>
						</g>
						<g id="Row2-Copy" transform="translate(11.000000, 30.000000)">
							<circle id="Oval_3_" class="st5" cx="-1890" cy="386" r="5"/>
							<circle id="Oval-Copy_3_" class="st5" cx="-1868" cy="386" r="5"/>
							<circle id="Oval-Copy-2_3_" class="st5" cx="-1846" cy="386" r="5"/>
							<circle id="Oval-Copy-3_3_" class="st5" cx="-1824" cy="386" r="5"/>
							<circle id="Oval-Copy-4_3_" class="st5" cx="-1802" cy="386" r="5"/>
							<circle id="Oval-Copy-5_3_" class="st5" cx="-1780" cy="386" r="5"/>
							<circle id="Oval-Copy-6_3_" class="st5" cx="-1758" cy="386" r="5"/>
							<circle id="Oval-Copy-7_3_" class="st5" cx="-1736" cy="386" r="5"/>
						</g>
						<g id="Row1-Copy" transform="translate(0.000000, 40.000000)">
							<circle id="Oval_4_" class="st5" cx="-1890" cy="386" r="5"/>
							<circle id="Oval-Copy_4_" class="st5" cx="-1868" cy="386" r="5"/>
							<circle id="Oval-Copy-2_4_" class="st5" cx="-1846" cy="386" r="5"/>
							<circle id="Oval-Copy-3_4_" class="st5" cx="-1824" cy="386" r="5"/>
							<circle id="Oval-Copy-4_4_" class="st5" cx="-1802" cy="386" r="5"/>
							<circle id="Oval-Copy-5_4_" class="st5" cx="-1780" cy="386" r="5"/>
							<circle id="Oval-Copy-6_4_" class="st5" cx="-1758" cy="386" r="5"/>
							<circle id="Oval-Copy-7_4_" class="st5" cx="-1736" cy="386" r="5"/>
						</g>
						<g id="Row2-Copy-2" transform="translate(11.000000, 50.000000)">
							<circle id="Oval_5_" class="st5" cx="-1890" cy="386" r="5"/>
							<circle id="Oval-Copy_5_" class="st5" cx="-1868" cy="386" r="5"/>
							<circle id="Oval-Copy-2_5_" class="st5" cx="-1846" cy="386" r="5"/>
							<circle id="Oval-Copy-3_5_" class="st5" cx="-1824" cy="386" r="5"/>
							<circle id="Oval-Copy-4_5_" class="st5" cx="-1802" cy="386" r="5"/>
							<circle id="Oval-Copy-5_5_" class="st5" cx="-1780" cy="386" r="5"/>
							<circle id="Oval-Copy-6_5_" class="st5" cx="-1758" cy="386" r="5"/>
							<circle id="Oval-Copy-7_5_" class="st5" cx="-1736" cy="386" r="5"/>
						</g>
						<g id="Row3-Copy" transform="translate(0.000000, 60.000000)">
							<circle id="Oval_6_" class="st5" cx="-1890" cy="386" r="5"/>
							<circle id="Oval-Copy_6_" class="st5" cx="-1868" cy="386" r="5"/>
							<circle id="Oval-Copy-2_6_" class="st5" cx="-1846" cy="386" r="5"/>
							<circle id="Oval-Copy-3_6_" class="st5" cx="-1824" cy="386" r="5"/>
							<circle id="Oval-Copy-4_6_" class="st5" cx="-1802" cy="386" r="5"/>
							<circle id="Oval-Copy-5_6_" class="st5" cx="-1780" cy="386" r="5"/>
							<circle id="Oval-Copy-6_6_" class="st5" cx="-1758" cy="386" r="5"/>
							<circle id="Oval-Copy-7_6_" class="st5" cx="-1736" cy="386" r="5"/>
						</g>
						<g id="Row2-Copy-3" transform="translate(11.000000, 70.000000)">
							<circle id="Oval_7_" class="st5" cx="-1890" cy="386" r="5"/>
							<circle id="Oval-Copy_7_" class="st5" cx="-1868" cy="386" r="5"/>
							<circle id="Oval-Copy-2_7_" class="st5" cx="-1846" cy="386" r="5"/>
							<circle id="Oval-Copy-3_7_" class="st5" cx="-1824" cy="386" r="5"/>
							<circle id="Oval-Copy-4_7_" class="st5" cx="-1802" cy="386" r="5"/>
							<circle id="Oval-Copy-5_7_" class="st5" cx="-1780" cy="386" r="5"/>
							<circle id="Oval-Copy-6_7_" class="st5" cx="-1758" cy="386" r="5"/>
							<circle id="Oval-Copy-7_7_" class="st5" cx="-1736" cy="386" r="5"/>
						</g>
						<g id="Row1-Copy-2" transform="translate(0.000000, 80.000000)">
							<circle id="Oval_8_" class="st5" cx="-1890" cy="386" r="5"/>
							<circle id="Oval-Copy_8_" class="st5" cx="-1868" cy="386" r="5"/>
							<circle id="Oval-Copy-2_8_" class="st5" cx="-1846" cy="386" r="5"/>
							<circle id="Oval-Copy-3_8_" class="st5" cx="-1824" cy="386" r="5"/>
							<circle id="Oval-Copy-4_8_" class="st5" cx="-1802" cy="386" r="5"/>
							<circle id="Oval-Copy-5_8_" class="st5" cx="-1780" cy="386" r="5"/>
							<circle id="Oval-Copy-6_8_" class="st5" cx="-1758" cy="386" r="5"/>
							<circle id="Oval-Copy-7_8_" class="st5" cx="-1736" cy="386" r="5"/>
						</g>
						<g id="Row2-Copy-4" transform="translate(11.000000, 90.000000)">
							<circle id="Oval_9_" class="st5" cx="-1890" cy="386" r="5"/>
							<circle id="Oval-Copy_9_" class="st5" cx="-1868" cy="386" r="5"/>
							<circle id="Oval-Copy-2_9_" class="st5" cx="-1846" cy="386" r="5"/>
							<circle id="Oval-Copy-3_9_" class="st5" cx="-1824" cy="386" r="5"/>
							<circle id="Oval-Copy-4_9_" class="st5" cx="-1802" cy="386" r="5"/>
							<circle id="Oval-Copy-5_9_" class="st5" cx="-1780" cy="386" r="5"/>
							<circle id="Oval-Copy-6_9_" class="st5" cx="-1758" cy="386" r="5"/>
							<circle id="Oval-Copy-7_9_" class="st5" cx="-1736" cy="386" r="5"/>
						</g>
						<g id="Row3-Copy-2" transform="translate(0.000000, 100.000000)">
							<circle id="Oval_10_" class="st5" cx="-1890" cy="386" r="5"/>
							<circle id="Oval-Copy_10_" class="st5" cx="-1868" cy="386" r="5"/>
							<circle id="Oval-Copy-2_10_" class="st5" cx="-1846" cy="386" r="5"/>
							<circle id="Oval-Copy-3_10_" class="st5" cx="-1824" cy="386" r="5"/>
							<circle id="Oval-Copy-4_10_" class="st5" cx="-1802" cy="386" r="5"/>
							<circle id="Oval-Copy-5_10_" class="st5" cx="-1780" cy="386" r="5"/>
							<circle id="Oval-Copy-6_10_" class="st5" cx="-1758" cy="386" r="5"/>
							<circle id="Oval-Copy-7_10_" class="st5" cx="-1736" cy="386" r="5"/>
						</g>
						<g id="Row2-Copy-5" transform="translate(11.000000, 110.000000)">
							<circle id="Oval_11_" class="st5" cx="-1890" cy="386" r="5"/>
							<circle id="Oval-Copy_11_" class="st5" cx="-1868" cy="386" r="5"/>
							<circle id="Oval-Copy-2_11_" class="st5" cx="-1846" cy="386" r="5"/>
							<circle id="Oval-Copy-3_11_" class="st5" cx="-1824" cy="386" r="5"/>
							<circle id="Oval-Copy-4_11_" class="st5" cx="-1802" cy="386" r="5"/>
							<circle id="Oval-Copy-5_11_" class="st5" cx="-1780" cy="386" r="5"/>
							<circle id="Oval-Copy-6_11_" class="st5" cx="-1758" cy="386" r="5"/>
							<circle id="Oval-Copy-7_11_" class="st5" cx="-1736" cy="386" r="5"/>
						</g>
						<g id="Row1-Copy-3" transform="translate(0.000000, 120.000000)">
							<circle id="Oval_12_" class="st5" cx="-1890" cy="386" r="5"/>
							<circle id="Oval-Copy_12_" class="st5" cx="-1868" cy="386" r="5"/>
							<circle id="Oval-Copy-2_12_" class="st5" cx="-1846" cy="386" r="5"/>
							<circle id="Oval-Copy-3_12_" class="st5" cx="-1824" cy="386" r="5"/>
							<circle id="Oval-Copy-4_12_" class="st5" cx="-1802" cy="386" r="5"/>
							<circle id="Oval-Copy-5_12_" class="st5" cx="-1780" cy="386" r="5"/>
							<circle id="Oval-Copy-6_12_" class="st5" cx="-1758" cy="386" r="5"/>
							<circle id="Oval-Copy-7_12_" class="st5" cx="-1736" cy="386" r="5"/>
						</g>
						<g id="Row2-Copy-6" transform="translate(11.000000, 130.000000)">
							<circle id="Oval_13_" class="st5" cx="-1890" cy="386" r="5"/>
							<circle id="Oval-Copy_13_" class="st5" cx="-1868" cy="386" r="5"/>
							<circle id="Oval-Copy-2_13_" class="st5" cx="-1846" cy="386" r="5"/>
							<circle id="Oval-Copy-3_13_" class="st5" cx="-1824" cy="386" r="5"/>
							<circle id="Oval-Copy-4_13_" class="st5" cx="-1802" cy="386" r="5"/>
							<circle id="Oval-Copy-5_13_" class="st5" cx="-1780" cy="386" r="5"/>
							<circle id="Oval-Copy-6_13_" class="st5" cx="-1758" cy="386" r="5"/>
							<circle id="Oval-Copy-7_13_" class="st5" cx="-1736" cy="386" r="5"/>
						</g>
						<g id="Row3-Copy-3" transform="translate(0.000000, 140.000000)">
							<circle id="Oval_14_" class="st5" cx="-1890" cy="386" r="5"/>
							<circle id="Oval-Copy_14_" class="st5" cx="-1868" cy="386" r="5"/>
							<circle id="Oval-Copy-2_14_" class="st5" cx="-1846" cy="386" r="5"/>
							<circle id="Oval-Copy-3_14_" class="st5" cx="-1824" cy="386" r="5"/>
							<circle id="Oval-Copy-4_14_" class="st5" cx="-1802" cy="386" r="5"/>
							<circle id="Oval-Copy-5_14_" class="st5" cx="-1780" cy="386" r="5"/>
							<circle id="Oval-Copy-6_14_" class="st5" cx="-1758" cy="386" r="5"/>
							<circle id="Oval-Copy-7_14_" class="st5" cx="-1736" cy="386" r="5"/>
						</g>
						<g id="Row2-Copy-7" transform="translate(11.000000, 150.000000)">
							<circle id="Oval_15_" class="st5" cx="-1890" cy="386" r="5"/>
							<circle id="Oval-Copy_15_" class="st5" cx="-1868" cy="386" r="5"/>
							<circle id="Oval-Copy-2_15_" class="st5" cx="-1846" cy="386" r="5"/>
							<circle id="Oval-Copy-3_15_" class="st5" cx="-1824" cy="386" r="5"/>
							<circle id="Oval-Copy-4_15_" class="st5" cx="-1802" cy="386" r="5"/>
							<circle id="Oval-Copy-5_15_" class="st5" cx="-1780" cy="386" r="5"/>
							<circle id="Oval-Copy-6_15_" class="st5" cx="-1758" cy="386" r="5"/>
							<circle id="Oval-Copy-7_15_" class="st5" cx="-1736" cy="386" r="5"/>
						</g>
						<g id="Row1-Copy-4" transform="translate(0.000000, 160.000000)">
							<circle id="Oval_16_" class="st5" cx="-1890" cy="386" r="5"/>
							<circle id="Oval-Copy_16_" class="st5" cx="-1868" cy="386" r="5"/>
							<circle id="Oval-Copy-2_16_" class="st5" cx="-1846" cy="386" r="5"/>
							<circle id="Oval-Copy-3_16_" class="st5" cx="-1824" cy="386" r="5"/>
							<circle id="Oval-Copy-4_16_" class="st5" cx="-1802" cy="386" r="5"/>
							<circle id="Oval-Copy-5_16_" class="st5" cx="-1780" cy="386" r="5"/>
							<circle id="Oval-Copy-6_16_" class="st5" cx="-1758" cy="386" r="5"/>
							<circle id="Oval-Copy-7_16_" class="st5" cx="-1736" cy="386" r="5"/>
						</g>
						<g id="Row2-Copy-8" transform="translate(11.000000, 170.000000)">
							<circle id="Oval_17_" class="st5" cx="-1890" cy="386" r="5"/>
							<circle id="Oval-Copy_17_" class="st5" cx="-1868" cy="386" r="5"/>
							<circle id="Oval-Copy-2_17_" class="st5" cx="-1846" cy="386" r="5"/>
							<circle id="Oval-Copy-3_17_" class="st5" cx="-1824" cy="386" r="5"/>
							<circle id="Oval-Copy-4_17_" class="st5" cx="-1802" cy="386" r="5"/>
							<circle id="Oval-Copy-5_17_" class="st5" cx="-1780" cy="386" r="5"/>
							<circle id="Oval-Copy-6_17_" class="st5" cx="-1758" cy="386" r="5"/>
							<circle id="Oval-Copy-7_17_" class="st5" cx="-1736" cy="386" r="5"/>
						</g>
						<g id="Row3-Copy-4" transform="translate(0.000000, 180.000000)">
							<circle id="Oval_18_" class="st5" cx="-1890" cy="386" r="5"/>
							<circle id="Oval-Copy_18_" class="st5" cx="-1868" cy="386" r="5"/>
							<circle id="Oval-Copy-2_18_" class="st5" cx="-1846" cy="386" r="5"/>
							<circle id="Oval-Copy-3_18_" class="st5" cx="-1824" cy="386" r="5"/>
							<circle id="Oval-Copy-4_18_" class="st5" cx="-1802" cy="386" r="5"/>
							<circle id="Oval-Copy-5_18_" class="st5" cx="-1780" cy="386" r="5"/>
							<circle id="Oval-Copy-6_18_" class="st5" cx="-1758" cy="386" r="5"/>
							<circle id="Oval-Copy-7_18_" class="st5" cx="-1736" cy="386" r="5"/>
						</g>
						<g id="Row2-Copy-9" transform="translate(11.000000, 190.000000)">
							<circle id="Oval_19_" class="st5" cx="-1890" cy="386" r="5"/>
							<circle id="Oval-Copy_19_" class="st5" cx="-1868" cy="386" r="5"/>
							<circle id="Oval-Copy-2_19_" class="st5" cx="-1846" cy="386" r="5"/>
							<circle id="Oval-Copy-3_19_" class="st5" cx="-1824" cy="386" r="5"/>
							<circle id="Oval-Copy-4_19_" class="st5" cx="-1802" cy="386" r="5"/>
							<circle id="Oval-Copy-5_19_" class="st5" cx="-1780" cy="386" r="5"/>
							<circle id="Oval-Copy-6_19_" class="st5" cx="-1758" cy="386" r="5"/>
							<circle id="Oval-Copy-7_19_" class="st5" cx="-1736" cy="386" r="5"/>
						</g>
						<g id="Row1-Copy-5" transform="translate(0.000000, 200.000000)">
							<circle id="Oval_20_" class="st5" cx="-1890" cy="386" r="5"/>
							<circle id="Oval-Copy_20_" class="st5" cx="-1868" cy="386" r="5"/>
							<circle id="Oval-Copy-2_20_" class="st5" cx="-1846" cy="386" r="5"/>
							<circle id="Oval-Copy-3_20_" class="st5" cx="-1824" cy="386" r="5"/>
							<circle id="Oval-Copy-4_20_" class="st5" cx="-1802" cy="386" r="5"/>
							<circle id="Oval-Copy-5_20_" class="st5" cx="-1780" cy="386" r="5"/>
							<circle id="Oval-Copy-6_20_" class="st5" cx="-1758" cy="386" r="5"/>
							<circle id="Oval-Copy-7_20_" class="st5" cx="-1736" cy="386" r="5"/>
						</g>
						<g id="Row2-Copy-10" transform="translate(11.000000, 210.000000)">
							<circle id="Oval_21_" class="st5" cx="-1890" cy="386" r="5"/>
							<circle id="Oval-Copy_21_" class="st5" cx="-1868" cy="386" r="5"/>
							<circle id="Oval-Copy-2_21_" class="st5" cx="-1846" cy="386" r="5"/>
							<circle id="Oval-Copy-3_21_" class="st5" cx="-1824" cy="386" r="5"/>
							<circle id="Oval-Copy-4_21_" class="st5" cx="-1802" cy="386" r="5"/>
							<circle id="Oval-Copy-5_21_" class="st5" cx="-1780" cy="386" r="5"/>
							<circle id="Oval-Copy-6_21_" class="st5" cx="-1758" cy="386" r="5"/>
							<circle id="Oval-Copy-7_21_" class="st5" cx="-1736" cy="386" r="5"/>
						</g>
						<g id="Row3-Copy-5" transform="translate(0.000000, 220.000000)">
							<circle id="Oval_22_" class="st5" cx="-1890" cy="386" r="5"/>
							<circle id="Oval-Copy_22_" class="st5" cx="-1868" cy="386" r="5"/>
							<circle id="Oval-Copy-2_22_" class="st5" cx="-1846" cy="386" r="5"/>
							<circle id="Oval-Copy-3_22_" class="st5" cx="-1824" cy="386" r="5"/>
							<circle id="Oval-Copy-4_22_" class="st5" cx="-1802" cy="386" r="5"/>
							<circle id="Oval-Copy-5_22_" class="st5" cx="-1780" cy="386" r="5"/>
							<circle id="Oval-Copy-6_22_" class="st5" cx="-1758" cy="386" r="5"/>
							<circle id="Oval-Copy-7_22_" class="st5" cx="-1736" cy="386" r="5"/>
						</g>
						<g id="Row2-Copy-11" transform="translate(11.000000, 230.000000)">
							<circle id="Oval_23_" class="st5" cx="-1890" cy="386" r="5"/>
							<circle id="Oval-Copy_23_" class="st5" cx="-1868" cy="386" r="5"/>
							<circle id="Oval-Copy-2_23_" class="st5" cx="-1846" cy="386" r="5"/>
							<circle id="Oval-Copy-3_23_" class="st5" cx="-1824" cy="386" r="5"/>
							<circle id="Oval-Copy-4_23_" class="st5" cx="-1802" cy="386" r="5"/>
							<circle id="Oval-Copy-5_23_" class="st5" cx="-1780" cy="386" r="5"/>
							<circle id="Oval-Copy-6_23_" class="st5" cx="-1758" cy="386" r="5"/>
							<circle id="Oval-Copy-7_23_" class="st5" cx="-1736" cy="386" r="5"/>
						</g>
						<g id="Row1-Copy-6" transform="translate(0.000000, 240.000000)">
							<circle id="Oval_24_" class="st5" cx="-1890" cy="386" r="5"/>
							<circle id="Oval-Copy_24_" class="st5" cx="-1868" cy="386" r="5"/>
							<circle id="Oval-Copy-2_24_" class="st5" cx="-1846" cy="386" r="5"/>
							<circle id="Oval-Copy-3_24_" class="st5" cx="-1824" cy="386" r="5"/>
							<circle id="Oval-Copy-4_24_" class="st5" cx="-1802" cy="386" r="5"/>
							<circle id="Oval-Copy-5_24_" class="st5" cx="-1780" cy="386" r="5"/>
							<circle id="Oval-Copy-6_24_" class="st5" cx="-1758" cy="386" r="5"/>
							<circle id="Oval-Copy-7_24_" class="st5" cx="-1736" cy="386" r="5"/>
						</g>
						<g id="Row2-Copy-12" transform="translate(11.000000, 250.000000)">
							<circle id="Oval_25_" class="st5" cx="-1890" cy="386" r="5"/>
							<circle id="Oval-Copy_25_" class="st5" cx="-1868" cy="386" r="5"/>
							<circle id="Oval-Copy-2_25_" class="st5" cx="-1846" cy="386" r="5"/>
							<circle id="Oval-Copy-3_25_" class="st5" cx="-1824" cy="386" r="5"/>
							<circle id="Oval-Copy-4_25_" class="st5" cx="-1802" cy="386" r="5"/>
							<circle id="Oval-Copy-5_25_" class="st5" cx="-1780" cy="386" r="5"/>
							<circle id="Oval-Copy-6_25_" class="st5" cx="-1758" cy="386" r="5"/>
							<circle id="Oval-Copy-7_25_" class="st5" cx="-1736" cy="386" r="5"/>
						</g>
						<g id="Row3-Copy-6" transform="translate(0.000000, 260.000000)">
							<circle id="Oval_26_" class="st5" cx="-1890" cy="386" r="5"/>
							<circle id="Oval-Copy_26_" class="st5" cx="-1868" cy="386" r="5"/>
							<circle id="Oval-Copy-2_26_" class="st5" cx="-1846" cy="386" r="5"/>
							<circle id="Oval-Copy-3_26_" class="st5" cx="-1824" cy="386" r="5"/>
							<circle id="Oval-Copy-4_26_" class="st5" cx="-1802" cy="386" r="5"/>
							<circle id="Oval-Copy-5_26_" class="st5" cx="-1780" cy="386" r="5"/>
							<circle id="Oval-Copy-6_26_" class="st5" cx="-1758" cy="386" r="5"/>
							<circle id="Oval-Copy-7_26_" class="st5" cx="-1736" cy="386" r="5"/>
						</g>
						<g id="Row2-Copy-13" transform="translate(11.000000, 270.000000)">
							<circle id="Oval_27_" class="st5" cx="-1890" cy="386" r="5"/>
							<circle id="Oval-Copy_27_" class="st5" cx="-1868" cy="386" r="5"/>
							<circle id="Oval-Copy-2_27_" class="st5" cx="-1846" cy="386" r="5"/>
							<circle id="Oval-Copy-3_27_" class="st5" cx="-1824" cy="386" r="5"/>
							<circle id="Oval-Copy-4_27_" class="st5" cx="-1802" cy="386" r="5"/>
							<circle id="Oval-Copy-5_27_" class="st5" cx="-1780" cy="386" r="5"/>
							<circle id="Oval-Copy-6_27_" class="st5" cx="-1758" cy="386" r="5"/>
							<circle id="Oval-Copy-7_27_" class="st5" cx="-1736" cy="386" r="5"/>
						</g>
						<g id="Row1-Copy-7" transform="translate(0.000000, 280.000000)">
							<circle id="Oval_28_" class="st5" cx="-1890" cy="386" r="5"/>
							<circle id="Oval-Copy_28_" class="st5" cx="-1868" cy="386" r="5"/>
							<circle id="Oval-Copy-2_28_" class="st5" cx="-1846" cy="386" r="5"/>
							<circle id="Oval-Copy-3_28_" class="st5" cx="-1824" cy="386" r="5"/>
							<circle id="Oval-Copy-4_28_" class="st5" cx="-1802" cy="386" r="5"/>
							<circle id="Oval-Copy-5_28_" class="st5" cx="-1780" cy="386" r="5"/>
							<circle id="Oval-Copy-6_28_" class="st5" cx="-1758" cy="386" r="5"/>
							<circle id="Oval-Copy-7_28_" class="st5" cx="-1736" cy="386" r="5"/>
						</g>
					</g>
				</g>
			</g>
		</g>
	</g>
</g>
</svg>
